HIERARCHY
ROOT Hips
{
	OFFSET 0.000000 0.000000 0.000000
	CHANNELS 6 Xposition Yposition Zposition Xrotation Yrotation Zrotation
	JOINT LeftUpLeg_virtual
	{
		OFFSET 0.000000 0.000000 0.000000
		CHANNELS 3 Xrotation Yrotation Zrotation
		JOINT LeftUpLeg
		{
			OFFSET 15.427100 -6.655098 0.678600
			CHANNELS 3 Xrotation Yrotation Zrotation
			JOINT LeftLeg
			{
				OFFSET 4.081073 -39.591068 13.024000
				CHANNELS 3 Xrotation Yrotation Zrotation
				JOINT LeftFoot
				{
					OFFSET -4.081074 -37.707932 -15.979700
					CHANNELS 3 Xrotation Yrotation Zrotation
					JOINT LeftToeBase
					{
						OFFSET 5.346399 -15.068900 20.645000
						CHANNELS 3 Xrotation Yrotation Zrotation
						JOINT LeftToe_End
						{
							OFFSET 2.754700 0.931300 11.300900
							CHANNELS 3 Xrotation Yrotation Zrotation
							End Site
							{
								OFFSET 0 0 0
							}
						}
					}
				}
			}
		}
	}
	JOINT RightUpLeg_virtual
	{
		OFFSET 0.000000 0.000000 0.000000
		CHANNELS 3 Xrotation Yrotation Zrotation
		JOINT RightUpLeg
		{
			OFFSET -15.569500 -6.655098 0.678600
			CHANNELS 3 Xrotation Yrotation Zrotation
			JOINT RightLeg
			{
				OFFSET -4.081825 -39.591045 13.023800
				CHANNELS 3 Xrotation Yrotation Zrotation
				JOINT RightFoot
				{
					OFFSET 4.081824 -37.707954 -15.979600
					CHANNELS 3 Xrotation Yrotation Zrotation
					JOINT RightToeBase
					{
						OFFSET -5.346400 -15.068900 20.645000
						CHANNELS 3 Xrotation Yrotation Zrotation
						JOINT RightToe_End
						{
							OFFSET -2.754700 0.931300 11.300900
							CHANNELS 3 Xrotation Yrotation Zrotation
							End Site
							{
								OFFSET 0 0 0
							}
						}
					}
				}
			}
		}
	}
	JOINT Spine_virtual
	{
		OFFSET 0.000000 0.000000 0.000000
		CHANNELS 3 Xrotation Yrotation Zrotation
		JOINT Spine
		{
			OFFSET -0.279200 12.230698 -2.892100
			CHANNELS 3 Xrotation Yrotation Zrotation
			JOINT Spine1
			{
				OFFSET -0.232667 10.192268 -1.242267
				CHANNELS 3 Xrotation Yrotation Zrotation
				JOINT Spine1_split
				{
					OFFSET -0.232667 10.192268 -1.242267
					CHANNELS 3 Xrotation Yrotation Zrotation
					JOINT Spine2
					{
						OFFSET -0.232667 10.192268 -1.242267
						CHANNELS 3 Xrotation Yrotation Zrotation
						JOINT Neck_virtual
						{
							OFFSET 0.000000 0.000000 0.000000
							CHANNELS 3 Xrotation Yrotation Zrotation
							JOINT Neck
							{
								OFFSET -0.418800 17.814194 8.416900
								CHANNELS 3 Xrotation Yrotation Zrotation
								JOINT Head
								{
									OFFSET 0.000000 7.031097 3.806800
									CHANNELS 3 Xrotation Yrotation Zrotation
									JOINT HeadTop_End
									{
										OFFSET 0.000000 24.646606 12.978600
										CHANNELS 3 Xrotation Yrotation Zrotation
										End Site
										{
											OFFSET 0 0 0
										}
									}
								}
							}
						}
						JOINT LeftShoulder_virtual
						{
							OFFSET 0.000000 0.000000 0.000000
							CHANNELS 3 Xrotation Yrotation Zrotation
							JOINT LeftShoulder
							{
								OFFSET 8.476499 7.247704 -3.868750
								CHANNELS 3 Xrotation Yrotation Zrotation
								JOINT LeftShoulder_split
								{
									OFFSET 8.476499 7.247704 -3.868750
									CHANNELS 3 Xrotation Yrotation Zrotation
									JOINT LeftArm
									{
										OFFSET 9.308998 -2.777710 0.208600
										CHANNELS 3 Xrotation Yrotation Zrotation
										JOINT LeftForeArm
										{
											OFFSET 29.972298 0.000000 0.000000
											CHANNELS 3 Xrotation Yrotation Zrotation
											JOINT LeftHand
											{
												OFFSET 26.026505 0.000000 0.000000
												CHANNELS 3 Xrotation Yrotation Zrotation
												End Site
												{
													OFFSET 0 0 0
												}
											}
										}
									}
								}
							}
						}
						JOINT RightShoulder_virtual
						{
							OFFSET 0.000000 0.000000 0.000000
							CHANNELS 3 Xrotation Yrotation Zrotation
							JOINT RightShoulder
							{
								OFFSET -7.570500 7.247704 -3.868750
								CHANNELS 3 Xrotation Yrotation Zrotation
								JOINT RightShoulder_split
								{
									OFFSET -7.570500 7.247704 -3.868750
									CHANNELS 3 Xrotation Yrotation Zrotation
									JOINT RightArm
									{
										OFFSET -9.308998 -2.777710 0.208500
										CHANNELS 3 Xrotation Yrotation Zrotation
										JOINT RightForeArm
										{
											OFFSET -29.972300 0.000000 0.000000
											CHANNELS 3 Xrotation Yrotation Zrotation
											JOINT RightHand
											{
												OFFSET -26.026505 0.000000 0.000000
												CHANNELS 3 Xrotation Yrotation Zrotation
												End Site
												{
													OFFSET 0 0 0
												}
											}
										}
									}
								}
							}
						}
					}
				}
			}
		}
	}
}
MOTION
Frames: 4
Frame Time: 0.03333333
3.351579 63.354317 -4.476131 0.000000 0.000000 0.000000 25.184663 -10.171632 -1.963204 -98.210887 -9.267117 -5.208552 49.462594 22.943314 -7.531303 40.915169 17.997507 -2.088117 -5.723619 2.617336 1.634829 0.000000 0.000000 0.000000 25.382139 -7.533339 -3.736680 23.157546 -7.225903 5.308083 37.751924 -0.535750 5.635207 -16.725853 -17.454627 30.606839 -43.528840 1.104511 3.516970 0.000000 0.000000 0.000000 18.992557 -9.476510 -5.190099 10.746857 14.064275 -10.620025 1.351598 4.321990 -0.865044 0.448352 1.383358 0.497751 0.000000 0.000000 0.000000 1.449441 4.716109 -0.917967 -0.804138 -3.461742 3.348734 -4.212324 -7.430354 11.370731 0.000000 0.000000 0.000000 2.648991 4.531635 -0.875008 1.535629 2.454929 -16.151729 -1.281798 -1.105171 -1.727912 -1.933322 24.062717 -36.888615 2.508913 -21.845510 -0.830440 0.000000 0.000000 0.000000 2.493564 4.444191 -0.822188 3.858802 12.711374 -5.465767 1.613978 0.826685 2.397255 -47.674072 66.264467 15.767046 -172.202347 76.911004 170.195064 0.000000 0.000000 0.000000 
2.118079 63.661808 -2.074852 0.000000 0.000000 0.000000 25.966714 -10.088979 -2.212623 -98.057310 -9.348838 -4.300099 50.631438 21.250737 -7.119223 41.038392 17.745579 -2.785092 -6.226026 2.513218 1.870702 0.000000 0.000000 0.000000 26.467779 -6.748231 -4.203663 22.251952 -8.373291 4.480247 37.818232 0.073308 5.915020 -15.312792 -16.685841 29.378556 -42.612823 0.747782 4.117222 0.000000 0.000000 0.000000 20.435984 -8.468573 -5.231367 11.193073 13.507578 -11.042659 1.676596 4.107423 -0.807371 0.616141 1.067938 0.417066 0.000000 0.000000 0.000000 1.601590 4.573064 -0.914842 -0.826019 -2.952189 3.178649 -4.266919 -7.860874 11.338770 0.000000 0.000000 0.000000 2.835164 4.299955 -0.851927 1.498500 1.617853 -16.337025 -1.822042 -2.140773 -1.906925 -4.422365 22.725839 -36.364241 2.626234 -23.649303 -0.773331 0.000000 0.000000 0.000000 2.565171 4.228680 -0.704197 3.867202 13.002419 -5.296651 1.636964 0.434655 2.235747 -44.931962 65.233784 12.763673 -170.569290 77.450712 168.796050 0.000000 0.000000 0.000000 
-0.300779 64.286774 1.252319 0.000000 0.000000 0.000000 27.455206 -9.670408 -2.430955 -98.791959 -9.300492 -2.439672 53.505960 18.672106 -6.840380 39.205323 18.180891 -2.533243 -7.172592 2.404032 1.674763 0.000000 0.000000 0.000000 28.407298 -5.284149 -4.673693 18.701031 -9.927596 2.503575 39.136834 0.763912 6.158374 -12.683905 -16.143968 27.195988 -43.051932 -0.055068 5.548530 0.000000 0.000000 0.000000 22.994933 -7.553422 -5.221607 12.216269 12.325731 -11.530146 1.844095 3.767381 -0.909145 1.058080 1.040789 0.071521 0.000000 0.000000 0.000000 1.679676 4.318962 -1.082184 -1.216725 -2.458355 3.005311 -4.679817 -8.715975 11.500971 0.000000 0.000000 0.000000 2.803558 3.960680 -0.964840 1.384724 0.428832 -17.099654 -2.472331 -2.352931 -2.502873 -7.742509 20.932921 -34.706449 2.970938 -27.528620 -0.432548 0.000000 0.000000 0.000000 2.428191 3.863296 -0.746288 3.825982 13.520604 -4.813612 1.307720 0.526582 2.054571 -39.090361 62.516578 7.100424 -169.745541 76.650937 168.048663 0.000000 0.000000 0.000000 
-3.348521 65.016678 4.918148 0.000000 0.000000 0.000000 29.466911 -8.892076 -2.599433 -100.229256 -8.896655 0.093078 57.042175 15.617646 -6.654604 35.261985 19.030615 -1.333401 -8.617452 2.256827 1.284173 0.000000 0.000000 0.000000 30.841316 -3.567545 -5.008290 12.519154 -11.768447 -0.569516 41.408070 1.320521 6.314875 -9.767840 -16.310640 24.081562 -44.313072 -1.129391 7.227399 0.000000 0.000000 0.000000 26.287001 -6.856778 -5.131830 13.562843 10.742853 -12.012272 1.817860 3.355454 -1.115002 1.448274 1.113953 -0.014422 0.000000 0.000000 0.000000 1.682857 3.993984 -1.348046 -1.937312 -2.031001 2.782384 -5.415775 -9.860588 11.762656 0.000000 0.000000 0.000000 2.634506 3.575408 -1.180215 1.207887 -0.853384 -18.408430 -3.165918 -1.736826 -3.274915 -10.738750 18.968776 -32.539902 3.447105 -32.605677 0.131166 0.000000 0.000000 0.000000 2.141358 3.428413 -0.927905 3.790206 14.124928 -4.173701 0.856286 1.090486 1.877444 -32.752833 58.601712 1.511683 -170.139712 74.467763 168.403040 0.000000 0.000000 0.000000 
